<?xml version="1.0" encoding="utf-8"?>
<!-- Generator: Adobe Illustrator 27.1.1, SVG Export Plug-In . SVG Version: 6.00 Build 0)  -->
<svg version="1.1" xmlns="http://www.w3.org/2000/svg" xmlns:xlink="http://www.w3.org/1999/xlink" x="0px" y="0px"
	 viewBox="0 0 1080 1080" style="enable-background:new 0 0 1080 1080;" xml:space="preserve">
<style type="text/css">
	.st0{display:none;}
	.st1{display:inline;fill:#B98739;}
	.st2{display:inline;fill:#6F8F80;}
	.st3{display:inline;fill:#713A16;}
	.st4{display:inline;}
	.st5{fill:#FFFFFF;}
	.st6{fill:url(#SVGID_1_);}
	.st7{fill:#B98739;}
	.st8{fill:url(#SVGID_00000120557177850280541100000009193524608462801334_);}
	.st9{fill:#6F8F80;}
	.st10{fill:#713A16;}
	.st11{fill:url(#SVGID_00000067923159642256171140000016110428642578283910_);}
	.st12{fill:url(#SVGID_00000024713198253742384920000006463441859512454786_);}
	.st13{fill:url(#SVGID_00000003819802725163853400000008432528890099428285_);}
	.st14{fill:url(#SVGID_00000093148092815045583000000013703020849043777707_);}
	.st15{fill:url(#SVGID_00000036948814366078501280000012877037265638039718_);}
	.st16{fill:url(#SVGID_00000074440669052698099890000018108108721197743499_);}
	.st17{fill:url(#SVGID_00000034066531897205298530000011506915408692255875_);}
</style>
<g id="Fondo_Color" class="st0">
	<rect class="st1" width="1080" height="1080"/>
</g>
<g id="Logo">
	<g>
		<path class="st7" d="M215.68,560.08c-1.3-0.5-2.8-0.98-4.5-1.45c-1.7-0.47-3.61-0.87-5.75-1.2c-2.13-0.33-4.43-0.5-6.89-0.5
			c-4.46,0-8.56,0.7-12.29,2.1c-3.73,1.4-6.93,3.45-9.59,6.14c-2.67,2.7-4.75,6.03-6.24,9.99c-1.5,3.96-2.25,8.51-2.25,13.64v16.79
			c-3.4,0-6.53-0.03-9.39-0.1c-2.87-0.07-5.33-0.17-7.39-0.3v8.79l16.78-0.6v55.45c0,5.66-0.07,10.61-0.2,14.84
			c-0.13,4.23-0.33,7.88-0.6,10.94c-0.27,3.06-0.57,5.63-0.9,7.69c-0.34,2.07-0.7,3.8-1.1,5.2v0.4h23.08v-0.4
			c-0.4-1.4-0.78-3.13-1.15-5.2c-0.37-2.06-0.67-4.63-0.9-7.69c-0.23-3.06-0.43-6.71-0.6-10.94c-0.17-4.23-0.25-9.17-0.25-14.84
			v-55.45c3.73,0.07,7.19,0.13,10.39,0.2c3.2,0.07,5.96,0.17,8.29,0.3c2.73,0.13,5.26,0.23,7.59,0.3l1.8-10.19
			c-0.73,0.13-1.93,0.28-3.6,0.45c-1.67,0.17-3.73,0.32-6.2,0.45c-2.47,0.14-5.24,0.27-8.34,0.4c-3.1,0.13-6.41,0.23-9.94,0.3
			v-18.98c0-4.46,0.53-8.11,1.6-10.94c1.07-2.83,2.4-5.05,4-6.64c1.6-1.6,3.35-2.7,5.24-3.3c1.9-0.6,3.68-0.9,5.35-0.9
			c2.53,0,4.78,0.45,6.74,1.35c1.96,0.9,3.75,2.05,5.35,3.45c1.6,1.4,3.03,2.95,4.3,4.64c1.26,1.7,2.43,3.35,3.5,4.95l1.2-0.6
			l-3.9-17.19C218.06,561.03,216.98,560.58,215.68,560.08z"/>
		<path class="st7" d="M289.67,604.54c-1.07-0.3-2.27-0.53-3.6-0.7c-1.33-0.17-2.9-0.25-4.7-0.25c-2.93,0-5.84,0.47-8.74,1.4
			c-2.9,0.93-5.75,2.16-8.54,3.7c-2.8,1.53-5.53,3.3-8.19,5.3c-2.66,2-5.23,4.03-7.69,6.09c0.2-3.46,0.48-6.29,0.85-8.49
			c0.37-2.2,0.82-4.06,1.35-5.59v-0.4h-23.08v0.4c0.4,1.4,0.78,3.13,1.15,5.2c0.36,2.06,0.67,4.63,0.9,7.69
			c0.23,3.07,0.43,6.71,0.6,10.94c0.17,4.23,0.25,9.18,0.25,14.84v24.18c0,5.66-0.08,10.61-0.25,14.84
			c-0.17,4.23-0.37,7.88-0.6,10.94c-0.23,3.06-0.53,5.63-0.9,7.69c-0.37,2.07-0.75,3.8-1.15,5.2v0.4h23.08v-0.4
			c-0.4-1.4-0.77-3.13-1.1-5.2c-0.33-2.06-0.63-4.63-0.9-7.69s-0.47-6.71-0.6-10.94c-0.13-4.23-0.2-9.17-0.2-14.84v-25.78
			c0-2.53,0-4.93,0-7.19c0-2.26,0.07-4.36,0.2-6.29c2.2-1.86,4.46-3.65,6.79-5.35c2.33-1.7,4.66-3.2,6.99-4.5
			c2.33-1.3,4.63-2.31,6.89-3.05c2.26-0.73,4.43-1.1,6.49-1.1c3.8,0,6.79,0.88,8.99,2.65c2.2,1.77,3.7,4.11,4.5,7.04l1.7,0.4
			l4.9-19.08c-0.8-0.33-1.63-0.68-2.5-1.05C291.7,605.18,290.73,604.84,289.67,604.54z"/>
		<path class="st7" d="M386.68,691.67c-2.2,2.16-4.7,4.05-7.49,5.64c-2.8,1.6-5.91,2.85-9.34,3.75c-3.43,0.9-7.08,1.35-10.94,1.35
			c-5.59,0-10.61-1.07-15.04-3.2c-4.43-2.13-8.19-5.18-11.29-9.14c-3.1-3.96-5.53-8.74-7.29-14.34c-1.77-5.6-2.85-11.85-3.25-18.78
			c4.4-0.13,9.34-0.23,14.84-0.3c5.49-0.06,11.14-0.1,16.93-0.1c8.13,0,15.95,0.03,23.48,0.1c7.53,0.07,15.05,0.17,22.58,0.3
			c-0.2-8.46-1.55-16-4.05-22.63c-2.5-6.63-5.89-12.19-10.19-16.68c-4.3-4.5-9.38-7.93-15.24-10.29s-12.22-3.55-19.08-3.55
			c-6.93,0-13.37,1.33-19.33,4c-5.96,2.67-11.17,6.36-15.64,11.09c-4.46,4.73-7.96,10.31-10.49,16.74c-2.53,6.43-3.8,13.4-3.8,20.93
			c0,8.53,1.38,16.1,4.15,22.73c2.76,6.63,6.55,12.19,11.34,16.69c4.8,4.5,10.42,7.91,16.88,10.24c6.46,2.33,13.39,3.5,20.78,3.5
			c6.99,0,12.99-0.65,17.98-1.95c5-1.3,9.29-2.88,12.89-4.75l7.39-17.79l-1.2-0.6C390.74,687.15,388.88,689.5,386.68,691.67z
			 M324.63,632.72c1.46-4.63,3.4-8.54,5.8-11.74c2.4-3.2,5.21-5.64,8.44-7.34c3.23-1.7,6.78-2.55,10.64-2.55
			c4.26,0,8.16,0.87,11.69,2.6c3.53,1.73,6.59,4.2,9.19,7.39c2.6,3.2,4.73,7.09,6.4,11.69c1.66,4.6,2.8,9.79,3.4,15.59
			c-5.46,0.2-11.54,0.32-18.23,0.35c-6.69,0.03-13.37,0.05-20.03,0.05c-3.6,0-7.06,0-10.39,0c-3.33,0-6.49-0.07-9.49-0.2
			C322.3,642.63,323.17,637.35,324.63,632.72z"/>
		<path class="st7" d="M492.49,733.39c-0.14,4.23-0.34,7.88-0.6,10.94c-0.27,3.06-0.57,5.63-0.9,7.69c-0.33,2.06-0.7,3.8-1.1,5.2
			v0.4h23.08v-0.4c-0.4-1.4-0.79-3.13-1.15-5.2c-0.37-2.07-0.67-4.63-0.9-7.69c-0.23-3.07-0.43-6.71-0.6-10.94
			c-0.17-4.23-0.25-9.18-0.25-14.84v-79.79c0-1.6,0.03-3.71,0.1-6.35c0.06-2.63,0.17-5.31,0.3-8.04c0.13-2.73,0.28-5.28,0.45-7.64
			c0.17-2.36,0.38-4.05,0.65-5.04c-2.93-1.13-6.06-2.11-9.39-2.95c-3.33-0.83-6.56-1.61-9.69-2.35c-3.27-0.8-6.88-1.43-10.84-1.9
			c-3.96-0.47-7.71-0.7-11.24-0.7c-8.19,0-15.79,1.33-22.78,4c-6.99,2.67-13.07,6.36-18.23,11.09c-5.16,4.73-9.19,10.31-12.09,16.74
			c-2.9,6.43-4.35,13.4-4.35,20.93c0,8.46,1.4,15.99,4.2,22.58c2.8,6.59,6.68,12.16,11.64,16.68c4.96,4.53,10.86,7.98,17.68,10.34
			c6.83,2.36,14.27,3.55,22.33,3.55c1.8,0,3.73-0.08,5.8-0.25c2.06-0.17,4.15-0.4,6.24-0.7c2.1-0.3,4.15-0.68,6.14-1.15
			c2-0.47,3.9-0.96,5.7-1.5v12.45C492.69,724.21,492.62,729.16,492.49,733.39z M482.94,700.86c-3.5,1.03-7.04,1.55-10.64,1.55
			c-6.59,0-12.34-1.28-17.24-3.85c-4.9-2.56-8.96-6.13-12.19-10.69c-3.23-4.56-5.66-9.94-7.29-16.14
			c-1.63-6.19-2.45-12.89-2.45-20.08c0-6.39,0.85-12.1,2.55-17.13c1.7-5.03,4.08-9.28,7.14-12.74c3.06-3.46,6.73-6.11,10.99-7.94
			c4.26-1.83,8.99-2.75,14.19-2.75c4.4,0,8.66,0.63,12.79,1.9c4.13,1.27,7.89,2.96,11.29,5.1c0.2,2.26,0.35,5.16,0.45,8.69
			c0.1,3.53,0.15,8.06,0.15,13.59v56.05C489.69,698.34,486.44,699.83,482.94,700.86z"/>
		<path class="st7" d="M606.09,707.5v0.4h23.08v-0.4c-0.4-1.4-0.77-3.13-1.1-5.2c-0.33-2.06-0.63-4.63-0.9-7.69
			c-0.27-3.06-0.47-6.71-0.6-10.94c-0.13-4.23-0.2-9.17-0.2-14.84v-24.18c0-5.66,0.07-10.61,0.2-14.84
			c0.13-4.23,0.33-7.88,0.6-10.94c0.26-3.06,0.57-5.63,0.9-7.69c0.33-2.06,0.7-3.8,1.1-5.2v-0.4h-23.08v0.4
			c0.4,1.4,0.78,3.13,1.15,5.2c0.37,2.06,0.67,4.63,0.9,7.69c0.23,3.07,0.43,6.71,0.6,10.94c0.17,4.23,0.25,9.18,0.25,14.84v24.18
			c0,2.47,0,4.78,0,6.94c0,2.17-0.07,4.21-0.2,6.15c-2.4,2.27-5.01,4.4-7.84,6.39c-2.83,2-5.66,3.75-8.49,5.25
			c-2.83,1.5-5.58,2.7-8.24,3.6c-2.66,0.9-5.06,1.35-7.19,1.35c-5.93,0-10.64-2.06-14.14-6.2c-3.5-4.13-5.24-10.59-5.24-19.38
			v-28.27c0-5.66,0.07-10.61,0.2-14.84c0.13-4.23,0.33-7.88,0.6-10.94c0.26-3.06,0.57-5.63,0.9-7.69c0.33-2.06,0.7-3.8,1.1-5.2v-0.4
			h-23.08v0.4c0.4,1.4,0.76,3.13,1.1,5.2c0.33,2.06,0.63,4.63,0.9,7.69c0.27,3.07,0.47,6.71,0.6,10.94c0.13,4.23,0.2,9.18,0.2,14.84
			v33.97c0,3.93,0.52,7.76,1.55,11.49c1.03,3.73,2.7,7.06,5,9.99c2.3,2.93,5.26,5.3,8.89,7.09c3.63,1.8,8.04,2.7,13.24,2.7
			c3.4,0,6.84-0.55,10.34-1.65c3.5-1.1,6.96-2.55,10.39-4.35c3.43-1.8,6.73-3.83,9.89-6.1c3.16-2.26,6.11-4.56,8.84-6.89
			c-0.2,4.2-0.52,7.59-0.95,10.19C606.9,703.71,606.49,705.84,606.09,707.5z"/>
		<path class="st7" d="M738.87,684.62c-1.53,2.53-3.4,4.88-5.6,7.04c-2.2,2.16-4.7,4.05-7.49,5.64c-2.8,1.6-5.91,2.85-9.34,3.75
			c-3.43,0.9-7.08,1.35-10.94,1.35c-5.59,0-10.61-1.07-15.04-3.2c-4.43-2.13-8.19-5.18-11.29-9.14c-3.1-3.96-5.53-8.74-7.29-14.34
			c-1.77-5.6-2.85-11.85-3.25-18.78c4.4-0.13,9.34-0.23,14.84-0.3c5.49-0.06,11.14-0.1,16.93-0.1c8.13,0,15.95,0.03,23.48,0.1
			c7.53,0.07,15.05,0.17,22.58,0.3c-0.2-8.46-1.55-16-4.05-22.63c-2.5-6.63-5.89-12.19-10.19-16.68c-4.3-4.5-9.38-7.93-15.24-10.29
			c-5.86-2.36-12.22-3.55-19.08-3.55c-6.93,0-13.37,1.33-19.33,4c-5.96,2.67-11.17,6.36-15.64,11.09
			c-4.46,4.73-7.96,10.31-10.49,16.74c-2.53,6.43-3.8,13.4-3.8,20.93c0,8.53,1.38,16.1,4.15,22.73c2.76,6.63,6.55,12.19,11.34,16.69
			c4.8,4.5,10.42,7.91,16.88,10.24c6.46,2.33,13.39,3.5,20.78,3.5c6.99,0,12.99-0.65,17.98-1.95c5-1.3,9.29-2.88,12.89-4.75
			l7.39-17.79L738.87,684.62z M671.23,632.72c1.46-4.63,3.4-8.54,5.8-11.74c2.4-3.2,5.21-5.64,8.44-7.34
			c3.23-1.7,6.78-2.55,10.64-2.55c4.26,0,8.16,0.87,11.69,2.6c3.53,1.73,6.59,4.2,9.19,7.39c2.6,3.2,4.73,7.09,6.4,11.69
			c1.66,4.6,2.8,9.79,3.4,15.59c-5.46,0.2-11.54,0.32-18.23,0.35c-6.69,0.03-13.37,0.05-20.03,0.05c-3.6,0-7.06,0-10.39,0
			c-3.33,0-6.49-0.07-9.49-0.2C668.9,642.63,669.76,637.35,671.23,632.72z"/>
		<path class="st7" d="M854.87,694.61c-0.27-3.06-0.47-6.71-0.6-10.94c-0.13-4.23-0.2-9.17-0.2-14.84v-33.97
			c0-3.86-0.52-7.68-1.55-11.44c-1.03-3.76-2.7-7.11-5-10.04c-2.3-2.93-5.26-5.3-8.89-7.09c-3.63-1.8-8.04-2.7-13.24-2.7
			c-3.4,0-6.86,0.55-10.39,1.65c-3.53,1.1-6.99,2.53-10.39,4.3c-3.4,1.76-6.68,3.78-9.84,6.04c-3.16,2.27-6.11,4.53-8.84,6.79
			c0.33-4.13,0.65-7.48,0.95-10.04c0.3-2.56,0.72-4.68,1.25-6.34v-0.4h-23.08v0.4c0.4,1.4,0.78,3.13,1.15,5.2
			c0.37,2.06,0.66,4.63,0.9,7.69c0.23,3.07,0.43,6.71,0.6,10.94c0.17,4.23,0.25,9.18,0.25,14.84v24.18c0,5.66-0.08,10.61-0.25,14.84
			c-0.17,4.23-0.37,7.88-0.6,10.94c-0.23,3.06-0.53,5.63-0.9,7.69c-0.37,2.07-0.75,3.8-1.15,5.2v0.4h23.08v-0.4
			c-0.4-1.4-0.77-3.13-1.1-5.2c-0.33-2.06-0.63-4.63-0.9-7.69c-0.27-3.06-0.47-6.71-0.6-10.94c-0.13-4.23-0.2-9.17-0.2-14.84v-24.18
			l0.2-13.09c2.46-2.26,5.1-4.4,7.89-6.39c2.8-2,5.6-3.75,8.39-5.25c2.8-1.5,5.53-2.7,8.19-3.6c2.66-0.9,5.06-1.35,7.19-1.35
			c5.93,0,10.66,2.07,14.19,6.2c3.53,4.13,5.29,10.59,5.29,19.38v28.27c0,5.66-0.08,10.61-0.25,14.84
			c-0.17,4.23-0.37,7.88-0.6,10.94c-0.23,3.06-0.54,5.63-0.9,7.69c-0.37,2.07-0.75,3.8-1.15,5.2v0.4h23.08v-0.4
			c-0.4-1.4-0.77-3.13-1.1-5.2C855.43,700.24,855.13,697.68,854.87,694.61z"/>
		<path class="st7" d="M930.95,671.38c-2.03-3.63-4.58-7.04-7.64-10.24c-3.06-3.2-6.38-6.26-9.94-9.19
			c-3.56-2.93-6.88-5.84-9.94-8.74c-3.06-2.9-5.61-5.83-7.64-8.79c-2.03-2.96-3.05-6.08-3.05-9.34c0-2.33,0.4-4.36,1.2-6.09
			s1.88-3.18,3.25-4.35c1.36-1.16,2.96-2.05,4.8-2.65c1.83-0.6,3.78-0.9,5.84-0.9c3,0,5.65,0.48,7.94,1.45
			c2.3,0.97,4.26,2.18,5.9,3.65c1.63,1.47,2.96,3.06,4,4.8c1.03,1.73,1.78,3.36,2.25,4.9l1.4-0.2l-1-16.59
			c-1.93-1.06-4.75-2.18-8.44-3.35c-3.7-1.16-8.31-1.75-13.84-1.75c-4.2,0-8.06,0.63-11.59,1.9c-3.53,1.27-6.58,3.05-9.14,5.35
			c-2.56,2.3-4.56,5.06-6,8.29c-1.43,3.23-2.15,6.78-2.15,10.64c0,4.73,0.98,8.94,2.95,12.64c1.96,3.7,4.45,7.09,7.44,10.19
			c3,3.1,6.21,6.01,9.64,8.74c3.43,2.73,6.64,5.46,9.64,8.19c3,2.73,5.48,5.58,7.44,8.54c1.96,2.96,2.95,6.21,2.95,9.74
			c0,4.4-1.45,7.96-4.35,10.69c-2.9,2.73-6.81,4.1-11.74,4.1c-3,0-5.76-0.52-8.29-1.55c-2.53-1.03-4.78-2.46-6.74-4.3
			c-1.97-1.83-3.61-4.05-4.95-6.64c-1.33-2.6-2.33-5.46-3-8.59h-1.6l-1,18.98c1.4,1,3.01,2.05,4.84,3.15c1.83,1.1,3.9,2.1,6.2,3
			s4.83,1.65,7.59,2.25c2.76,0.6,5.75,0.9,8.94,0.9c5.4,0,10.04-0.78,13.94-2.35c3.9-1.56,7.09-3.61,9.59-6.14
			c2.5-2.53,4.35-5.41,5.55-8.64c1.2-3.23,1.8-6.54,1.8-9.94C934,678.93,932.98,675.01,930.95,671.38z"/>
		<polygon class="st7" points="338.59,813.83 314.14,782.07 307.95,782.07 307.95,827.56 315.63,827.56 315.63,795.66 
			340.14,827.56 346.27,827.56 346.27,782.07 338.59,782.07 		"/>
		<polygon class="st7" points="358.14,827.56 388.4,827.56 388.4,820.98 366.08,820.98 366.08,807.75 386.98,807.75 386.98,801.17 
			366.08,801.17 366.08,788.65 388.4,788.65 388.4,782.07 358.14,782.07 		"/>
		<path class="st7" d="M428.4,808.85c0,4.09-0.93,7.15-2.77,9.19c-1.85,2.04-4.56,3.06-8.13,3.06c-3.57,0-6.29-1.02-8.16-3.06
			c-1.87-2.04-2.81-5.11-2.81-9.19v-26.77h-8.26v26.84c0,6.37,1.65,11.17,4.94,14.42c3.29,3.25,8.05,4.87,14.29,4.87
			c6.28,0,11.03-1.62,14.26-4.87c3.23-3.25,4.84-8.05,4.84-14.42v-26.84h-8.19V808.85z"/>
		<path class="st7" d="M475.2,809.49c-0.6-0.39-1.25-0.68-1.94-0.9c1.1-0.26,2.13-0.6,3.07-1.04c2.32-1.07,4.1-2.62,5.32-4.65
			c1.23-2.02,1.84-4.43,1.84-7.23c0-4.3-1.35-7.64-4.06-10.03c-2.71-2.39-6.56-3.58-11.55-3.58h-19.74v45.48h8.26v-18.19h6.13
			c1.07,0,2.02,0.11,2.84,0.32c0.82,0.22,1.55,0.59,2.19,1.13c0.65,0.54,1.23,1.28,1.74,2.23l7.87,14.52h9.1l-7.61-14
			C477.66,811.71,476.51,810.35,475.2,809.49z M466.46,803.24H456.4v-14.64h10.06c2.97,0,5.21,0.61,6.74,1.84
			c1.53,1.23,2.29,3.04,2.29,5.45c0,2.45-0.76,4.29-2.29,5.52C471.67,802.62,469.43,803.24,466.46,803.24z"/>
		<path class="st7" d="M530.3,787.75c-1.91-2.02-4.22-3.58-6.9-4.68c-2.69-1.1-5.69-1.65-9-1.65c-3.31,0-6.31,0.55-9,1.65
			c-2.69,1.1-4.99,2.67-6.9,4.71c-1.91,2.04-3.39,4.49-4.42,7.35c-1.03,2.86-1.55,6.08-1.55,9.64c0,3.53,0.52,6.73,1.55,9.61
			c1.03,2.88,2.5,5.35,4.42,7.42c1.91,2.06,4.21,3.64,6.9,4.74c2.69,1.1,5.69,1.65,9,1.65c3.31,0,6.31-0.55,9-1.65
			c2.69-1.1,4.99-2.68,6.9-4.74c1.91-2.06,3.39-4.54,4.42-7.42c1.03-2.88,1.55-6.11,1.55-9.68c0-3.57-0.52-6.78-1.55-9.65
			C533.69,792.21,532.21,789.77,530.3,787.75z M526.04,813.56c-1.05,2.45-2.56,4.32-4.52,5.61c-1.96,1.29-4.33,1.94-7.13,1.94
			c-2.75,0-5.12-0.65-7.1-1.94c-1.98-1.29-3.5-3.16-4.55-5.61c-1.05-2.45-1.58-5.38-1.58-8.77c0-3.44,0.53-6.38,1.58-8.81
			c1.05-2.43,2.57-4.28,4.55-5.55c1.98-1.27,4.34-1.9,7.1-1.9c2.8,0,5.18,0.64,7.16,1.9c1.98,1.27,3.48,3.12,4.52,5.55
			c1.03,2.43,1.55,5.37,1.55,8.81C527.62,808.18,527.09,811.11,526.04,813.56z"/>
		<path class="st7" d="M587.36,788.78c2.32,0,4.49,0.38,6.52,1.13c2.02,0.75,4,1.95,5.94,3.58l2.71-6.58
			c-1.76-1.76-4.01-3.12-6.74-4.06c-2.73-0.95-5.62-1.42-8.68-1.42c-4.73,0-8.79,0.96-12.16,2.87c-3.38,1.91-5.97,4.61-7.77,8.1
			c-1.81,3.48-2.71,7.61-2.71,12.39c0,4.77,0.9,8.91,2.71,12.42c1.81,3.51,4.4,6.22,7.77,8.13c3.38,1.91,7.43,2.87,12.16,2.87
			c3.05,0,5.95-0.48,8.68-1.45c2.73-0.97,4.98-2.31,6.74-4.03l-2.71-6.58c-1.94,1.63-3.91,2.83-5.94,3.58
			c-2.02,0.75-4.19,1.13-6.52,1.13c-4.6,0-8.11-1.4-10.52-4.19c-2.41-2.8-3.61-6.75-3.61-11.87c0-5.12,1.2-9.06,3.61-11.84
			C579.25,790.17,582.76,788.78,587.36,788.78z"/>
		<polygon class="st7" points="619.94,782.07 611.68,782.07 611.68,827.56 641.74,827.56 641.74,820.53 619.94,820.53 		"/>
		<rect x="649.87" y="782.07" class="st7" width="8.26" height="45.48"/>
		<polygon class="st7" points="700.58,813.83 676.13,782.07 669.94,782.07 669.94,827.56 677.62,827.56 677.62,795.66 
			702.13,827.56 708.26,827.56 708.26,782.07 700.58,782.07 		"/>
		<rect x="720.13" y="782.07" class="st7" width="8.26" height="45.48"/>
		<path class="st7" d="M761.61,788.78c2.32,0,4.49,0.38,6.52,1.13c2.02,0.75,4,1.95,5.94,3.58l2.71-6.58
			c-1.76-1.76-4.01-3.12-6.74-4.06c-2.73-0.95-5.62-1.42-8.68-1.42c-4.73,0-8.79,0.96-12.16,2.87c-3.38,1.91-5.97,4.61-7.77,8.1
			c-1.81,3.48-2.71,7.61-2.71,12.39c0,4.77,0.9,8.91,2.71,12.42c1.81,3.51,4.4,6.22,7.77,8.13c3.38,1.91,7.43,2.87,12.16,2.87
			c3.05,0,5.94-0.48,8.68-1.45c2.73-0.97,4.98-2.31,6.74-4.03l-2.71-6.58c-1.94,1.63-3.91,2.83-5.94,3.58
			c-2.02,0.75-4.19,1.13-6.52,1.13c-4.6,0-8.11-1.4-10.52-4.19c-2.41-2.8-3.61-6.75-3.61-11.87c0-5.12,1.2-9.06,3.61-11.84
			C753.5,790.17,757.01,788.78,761.61,788.78z"/>
		<path class="st7" d="M541.5,556.19c84.69,0,153.59-68.9,153.59-153.59c0-84.69-68.9-153.59-153.59-153.59
			c-84.69,0-153.59,68.9-153.59,153.59C387.9,487.29,456.8,556.19,541.5,556.19z M400.93,361.94c0.03-0.12,0.07-0.23,0.1-0.35
			c-0.12,0.4-0.24,0.79-0.35,1.19c0-0.01,0-0.01,0-0.02C400.76,362.49,400.85,362.22,400.93,361.94z M401.98,358.48
			c0.12-0.39,0.25-0.77,0.37-1.15c-0.27,0.82-0.53,1.64-0.79,2.47c0.03-0.08,0.05-0.17,0.08-0.25
			C401.75,359.19,401.86,358.84,401.98,358.48z M403.04,355.25c0.26-0.76,0.53-1.52,0.81-2.28c0.1-0.29,0.2-0.57,0.31-0.86
			c0.78-2.11,1.6-4.2,2.48-6.27c0.08-0.2,0.17-0.4,0.26-0.6c0.36-0.83,0.72-1.66,1.09-2.49c0.12-0.26,0.23-0.51,0.35-0.77
			c0.36-0.79,0.73-1.58,1.11-2.37c0.11-0.23,0.22-0.46,0.33-0.69c0.44-0.9,0.88-1.79,1.33-2.68c0.05-0.09,0.09-0.18,0.14-0.28
			c1.6-3.11,3.3-6.15,5.11-9.12c0.03-0.05,0.06-0.1,0.09-0.15c25.7-42.19,72.14-70.42,125.05-70.42
			c51.67,0,97.18,26.93,123.22,67.48c0.01,0.02,0.02,0.04,0.03,0.05c1.87,2.91,3.63,5.89,5.29,8.93c0.08,0.14,0.15,0.28,0.23,0.42
			c0.46,0.85,0.91,1.71,1.36,2.57c0.09,0.17,0.18,0.34,0.27,0.51c0.5,0.97,0.98,1.95,1.46,2.93c0.01,0.02,0.02,0.03,0.02,0.05
			c0.5,1.04,0.99,2.09,1.47,3.14c0.05,0.11,0.1,0.22,0.15,0.33c0.4,0.89,0.79,1.78,1.17,2.68c0.11,0.26,0.22,0.51,0.32,0.77
			c0.33,0.79,0.66,1.58,0.97,2.38c0.1,0.25,0.2,0.51,0.3,0.76c0.38,0.97,0.76,1.95,1.12,2.94c0.02,0.05,0.04,0.1,0.06,0.15
			c0.35,0.95,0.68,1.9,1.01,2.86c-7.59,2.39-15.74,2.88-25.31-0.56c-18.1-6.53-23.34-20.67-28.87-35.6
			c-5.71-15.46-12.21-32.96-34.22-40.91c-22.01-7.93-38.17,1.42-52.43,9.66c-13.81,7.99-26.85,15.52-44.95,9
			c-12.55-4.53-18.9-12.68-23.47-22.23c-2.6,1.46-5.17,2.97-7.66,4.58c5.24,10.68,13.02,20.59,28.09,26.03
			c22.01,7.93,38.18-1.42,52.45-9.66c13.81-7.99,26.85-15.52,44.95-8.99c15.28,5.51,21.39,16.43,26.25,28.67
			c-5.6-7.68-13.32-14.21-25.36-17.54c-22.08-6.11-37.24,4.55-50.61,13.93c-12.9,9.06-25.07,17.61-43.09,12.62
			c-18.05-4.98-24.09-18.57-30.51-32.98c-1.51-3.4-3.07-6.91-4.84-10.37c-2.51,1.67-4.97,3.44-7.35,5.26
			c1.4,2.84,2.71,5.77,4.04,8.75c6.64,14.92,14.17,31.83,36.27,37.95c22.08,6.11,37.24-4.53,50.61-13.93
			c12.9-9.06,25.09-17.61,43.11-12.62c16.9,4.68,23.28,16.92,29.29,30.29c-6.39-8.88-15.03-16.5-29.18-19.21
			c-22.16-4.26-36.22,7.6-48.63,18.08c-11.95,10.08-23.21,19.59-41.18,16.14c-17.97-3.46-24.92-16.48-32.25-30.27
			c-5.24-9.82-10.95-20.54-21.14-27.67c-2.27,2.04-4.49,4.15-6.64,6.33c9.39,5.8,14.53,15.46,19.9,25.54
			c7.62,14.32,16.28,30.56,38.44,34.84c22.16,4.26,36.22-7.62,48.62-18.08c11.93-10.08,23.21-19.59,41.19-16.14
			c17.97,3.46,24.9,16.48,32.25,30.27c0.56,1.04,1.11,2.11,1.69,3.17c-7.59-10.68-17.37-20.47-34.64-22.34
			c-22.19-2.42-35.11,10.59-46.5,22.07c-10.95,11.02-21.28,21.45-39.22,19.5c-17.94-1.95-25.8-14.33-34.11-27.45
			c-8.68-13.64-18.5-29.12-40.69-31.53c-1.07-0.13-2.15-0.2-3.18-0.24c-2.06,2.95-3.98,5.97-5.8,9.08c2.49-0.29,5.17-0.29,8.02,0.02
			c17.94,1.95,25.8,14.34,34.11,27.45c8.68,13.66,18.5,29.12,40.69,31.54c22.21,2.4,35.11-10.61,46.52-22.08
			c10.93-11.02,21.27-21.45,39.2-19.5c17.94,1.95,25.8,14.33,34.13,27.45c8.66,13.66,18.48,29.12,40.68,31.54
			c12.02,1.29,21.32-1.92,29.12-6.96c0,0.15,0.01,0.29,0.02,0.44c0,0.17,0.01,0.34,0.01,0.51c-6.88,6.46-14.88,11.02-26.41,10.73
			c-17.92-0.44-26.72-12.12-36.05-24.49c-9.73-12.88-20.76-27.49-42.97-28.03c-22.23-0.55-33.94,13.5-44.3,25.9
			c-9.93,11.9-19.3,23.12-37.22,22.68c-17.92-0.44-26.72-12.12-36.05-24.49c-9.73-12.88-20.76-27.49-42.99-28.03
			c-7.57-0.18-13.92,1.33-19.41,3.89c0.1-0.31,0.2-0.62,0.3-0.93C402.8,355.96,402.92,355.6,403.04,355.25z M658.5,490.36
			c-0.34,0.45-0.68,0.89-1.02,1.33c-0.46,0.59-0.92,1.19-1.38,1.77c-0.38,0.47-0.76,0.94-1.14,1.41c-0.44,0.55-0.89,1.09-1.35,1.63
			c-0.4,0.48-0.8,0.96-1.21,1.43c-0.45,0.52-0.91,1.04-1.36,1.55c-0.42,0.47-0.83,0.94-1.25,1.41c-0.59,0.65-1.2,1.3-1.8,1.94
			c-0.73,0.78-1.47,1.54-2.22,2.3c-0.36,0.36-0.71,0.73-1.07,1.09c-0.57,0.57-1.15,1.13-1.73,1.69c-0.33,0.31-0.65,0.63-0.98,0.94
			c-0.62,0.59-1.24,1.17-1.87,1.74c-0.26,0.24-0.52,0.47-0.78,0.71c-25.94,23.37-60.25,37.61-97.83,37.61
			c-7.46,0-14.8-0.57-21.97-1.65c-0.17-0.03-0.33-0.05-0.5-0.08c-0.93-0.14-1.85-0.3-2.78-0.46c-0.29-0.05-0.59-0.1-0.88-0.15
			c-0.17-0.03-0.34-0.07-0.52-0.1c19.99-9.03,25.83-25.98,30.99-41.05c5.2-15.17,10.11-29.49,28.29-36.67
			c18.15-7.19,31.54-0.07,45.71,7.44c11.78,6.23,24.8,13.14,40.91,11.08c-0.18,0.25-0.36,0.49-0.54,0.73
			C659.66,488.8,659.08,489.58,658.5,490.36z M420.21,484.37c-0.01-0.02-0.03-0.04-0.04-0.07c-3.91-5.79-7.42-11.88-10.49-18.21
			c2.07-0.89,4.34-1.63,6.83-2.2c17.99-4.09,29.67,5.04,42,14.7c12.82,10.02,27.36,21.39,49.5,16.37
			c22.14-5.04,30.32-21.57,37.55-36.16c6.97-14.04,13.53-27.32,31.54-31.42c18.01-4.09,29.67,5.04,42,14.7
			c12.82,10.02,27.36,21.39,49.5,16.37c3.46-0.79,6.57-1.87,9.4-3.17c-0.52,1.34-1.05,2.68-1.61,4c-2.4,1.38-5.09,2.57-8.15,3.52
			c-18.08,5.62-30.62-2.51-43.91-11.13c-13.75-8.91-29.34-19.03-51.41-12.15c-22.08,6.86-29.18,24.03-35.44,39.18
			c-6.06,14.64-11.77,28.47-29.85,34.09c-18.08,5.62-30.63-2.51-43.91-11.13c-11.56-7.5-24.44-15.82-41.36-14.2
			C421.63,486.43,420.91,485.4,420.21,484.37z M405.51,456.61c-0.17-0.43-0.33-0.86-0.5-1.28c-1.17-3.03-2.26-6.1-3.23-9.22
			c-0.01-0.04-0.02-0.07-0.03-0.11c-0.79-2.52-1.5-5.08-2.15-7.65c4.77-4.22,10.66-7.33,18.55-8.47
			c17.95-2.58,28.69,7.48,40.06,18.12c11.82,11.06,25.21,23.61,47.41,20.43c22.19-3.18,31.53-18.99,39.77-32.94
			c7.91-13.41,15.39-26.07,33.34-28.63c17.95-2.58,28.69,7.48,40.06,18.12c11.82,11.06,25.21,23.61,47.41,20.43
			c6.71-0.97,12.25-3.1,16.93-5.97c-0.21,0.82-0.44,1.64-0.67,2.46c-4.12,3.58-9.2,6.33-15.83,7.84c-17.99,4.09-29.67-5.02-42-14.68
			c-12.83-10.04-27.36-21.41-49.5-16.37s-30.32,21.57-37.55,36.15c-6.97,14.06-13.53,27.32-31.54,31.42
			c-18.01,4.09-29.67-5.02-42-14.68c-12.82-10.04-27.36-21.41-49.5-16.37c-3.08,0.7-5.91,1.63-8.47,2.75
			C405.87,457.5,405.69,457.06,405.51,456.61z M397.49,428.61c-0.27-1.52-0.52-3.06-0.75-4.6c-0.06-0.4-0.11-0.81-0.17-1.22
			c-0.16-1.16-0.31-2.33-0.44-3.5c-0.05-0.44-0.11-0.89-0.15-1.33c-0.15-1.44-0.28-2.89-0.39-4.35c-0.04-0.53-0.07-1.06-0.1-1.59
			c-0.06-1-0.12-2-0.16-3.01c-0.02-0.36-0.03-0.71-0.04-1.07c6.14-6.52,13.57-11.3,24.56-11.95c17.94-1.07,27.71,9.84,38.06,21.37
			c10.79,12.02,23.01,25.65,45.24,24.32c22.21-1.31,32.73-16.3,42.02-29.51c8.91-12.7,17.32-24.69,35.25-25.74
			c17.92-1.07,27.69,9.82,38.06,21.37c10.77,12.02,22.99,25.65,45.22,24.32c9.29-0.55,16.53-3.49,22.49-7.71
			c-0.06,0.38-0.12,0.76-0.18,1.14c-5.21,5.51-11.71,9.62-21.07,10.97c-17.95,2.58-28.69-7.48-40.06-18.12
			c-11.82-11.06-25.23-23.61-47.42-20.43c-22.19,3.18-31.53,18.99-39.75,32.94c-7.93,13.41-15.41,26.07-33.36,28.63
			c-17.94,2.58-28.67-7.48-40.04-18.1c-11.82-11.08-25.23-23.63-47.42-20.45c-7.93,1.12-14.21,3.88-19.38,7.58
			C397.5,428.62,397.49,428.62,397.49,428.61z M397.45,376.81c0.01-0.04,0.01-0.08,0.02-0.11c0.2-1.12,0.42-2.24,0.64-3.35
			c0.02-0.08,0.03-0.16,0.05-0.23c0.23-1.1,0.47-2.2,0.72-3.29c6.06-4.72,13.18-7.78,22.69-7.54c17.92,0.44,26.74,12.12,36.07,24.49
			c9.73,12.88,20.74,27.49,42.97,28.03c22.23,0.55,33.94-13.52,44.3-25.9c9.91-11.9,19.3-23.14,37.22-22.68
			c17.9,0.44,26.72,12.12,36.05,24.49c9.73,12.88,20.76,27.49,42.97,28.03c11.03,0.27,19.46-3.07,26.44-8.01
			c-0.01,0.25-0.03,0.51-0.05,0.76c-6.1,6.42-13.48,11.12-24.37,11.78c-17.92,1.06-27.71-9.84-38.06-21.39
			c-10.79-12.02-23.01-25.65-45.22-24.32c-22.23,1.33-32.74,16.3-42.04,29.52c-8.91,12.68-17.32,24.67-35.24,25.74
			c-17.94,1.06-27.71-9.84-38.06-21.37c-10.79-12.02-23.01-25.65-45.24-24.34c-10.07,0.62-17.75,4.02-23.98,8.8
			C395.63,389.42,396.34,383.05,397.45,376.81z M667.75,476.47c-17.14,5.91-30.06-0.92-43.71-8.15
			c-14.63-7.77-31.18-16.55-53.17-7.86c-13.22,5.22-20.7,13.72-25.72,23.07c0.18-0.47,0.38-0.95,0.58-1.42
			c6.04-14.64,11.77-28.47,29.83-34.09c18.08-5.62,30.63,2.51,43.91,11.13c13.69,8.87,29.23,18.92,51.13,12.23
			C669.69,473.1,668.73,474.8,667.75,476.47z M458.86,509.14c13.75,8.91,29.34,19.03,51.43,12.15c16.24-5.06,24.39-15.68,30.03-27
			c-1.04,2.77-1.98,5.53-2.91,8.24c-5.2,15.17-10.11,29.51-28.29,36.69c-4.2,1.64-8.13,2.52-11.88,2.84
			c-26.87-8.54-50.4-24.65-68.07-45.81C440.23,497.06,449.36,502.97,458.86,509.14z M683.19,366.03c-7.87,3.78-16.42,5.5-26.99,2.58
			c-10.66-2.95-17.14-8.9-21.96-16.24c4.44,4.33,10.04,8.04,17.37,10.68c11.79,4.25,21.92,3.54,30.95,0.68
			C682.78,364.49,682.99,365.26,683.19,366.03z M653.82,377.22c12.31,3.41,22.47,1.61,31.36-2.29c0.11,0.56,0.22,1.13,0.33,1.69
			c0.01,0.05,0.02,0.09,0.02,0.14c-7.81,4.96-16.42,7.88-27.68,5.72c-12.08-2.33-19.17-8.97-24.74-17.28
			C638.21,370.43,644.79,374.73,653.82,377.22z M656.16,391.24c12.42,2.39,22.29-0.29,30.74-4.95c0.05,0.46,0.11,0.91,0.16,1.37
			c-7.47,5.89-15.88,9.81-27.48,8.55c-14.32-1.55-22.21-9.77-29.07-19.7C636.54,383.4,644.47,388.99,656.16,391.24z"/>
	</g>
</g>
</svg>
