<?xml version="1.0" encoding="utf-8"?>
<!-- Generator: Adobe Illustrator 27.1.1, SVG Export Plug-In . SVG Version: 6.00 Build 0)  -->
<svg version="1.1" xmlns="http://www.w3.org/2000/svg" xmlns:xlink="http://www.w3.org/1999/xlink" x="0px" y="0px"
	 viewBox="0 350 1080 300" style="enable-background:new 0 0 1080 1080;" xml:space="preserve">
<style type="text/css">
	.st0{display:none;}
	.st1{display:inline;fill:#B98739;}
	.st2{display:inline;fill:#6F8F80;}
	.st3{display:inline;fill:#713A16;}
	.st4{display:inline;}
	.st5{fill:#FFFFFF;}
	.st6{fill:url(#SVGID_1_);}
	.st7{fill:#B98739;}
	.st8{fill:url(#SVGID_00000129179490856903513220000016759245753586304419_);}
	.st9{fill:#6F8F80;}
	.st10{fill:#713A16;}
	.st11{fill:url(#SVGID_00000006705980919708771850000007323838024457623452_);}
	.st12{fill:url(#SVGID_00000036944150256260403520000003166680064560387466_);}
	.st13{fill:url(#SVGID_00000080892485543966633040000009137930300040542873_);}
	.st14{fill:url(#SVGID_00000026858239573945664210000004056651854368068004_);}
	.st15{fill:url(#SVGID_00000069364440749600577710000011805684370860774031_);}
	.st16{fill:url(#SVGID_00000094591479567871779640000008913203809021374640_);}
	.st17{fill:url(#SVGID_00000038397716974215187200000003903833721005179268_);}
</style>
<g id="Fondo_Color" class="st0">
	<rect class="st1" width="1080" height="1080"/>
</g>
<g id="Logo">
	<g>
		<path class="st7" d="M276.18,390.83c-53.59,0-97.18,43.59-97.18,97.18c0,53.58,43.59,97.18,97.18,97.18
			c53.59,0,97.18-43.59,97.18-97.18C373.36,434.42,329.77,390.83,276.18,390.83z M350.21,543.54c-0.21,0.28-0.43,0.56-0.65,0.84
			c-0.29,0.38-0.58,0.75-0.87,1.12c-0.24,0.3-0.48,0.6-0.72,0.9c-0.28,0.34-0.56,0.69-0.85,1.03c-0.25,0.3-0.51,0.61-0.77,0.91
			c-0.28,0.33-0.57,0.65-0.85,0.97c-0.27,0.3-0.53,0.61-0.8,0.9c-0.35,0.38-0.7,0.76-1.05,1.13c-0.49,0.52-0.99,1.04-1.5,1.55
			c-0.22,0.23-0.45,0.46-0.67,0.68c-0.36,0.36-0.73,0.71-1.09,1.07c-0.21,0.2-0.41,0.4-0.62,0.59c-0.39,0.37-0.79,0.74-1.19,1.1
			c-0.16,0.15-0.33,0.3-0.5,0.45c-16.41,14.78-38.12,23.8-61.9,23.8c-2.23,0-4.45-0.08-6.64-0.24c-0.22-0.02-0.44-0.03-0.66-0.05
			c-0.68-0.05-1.35-0.11-2.03-0.18c-0.95-0.1-1.9-0.21-2.84-0.33c-0.38-0.05-0.76-0.1-1.14-0.16c-1.12-0.16-2.24-0.34-3.34-0.54
			c-0.07-0.01-0.13-0.03-0.2-0.04c12.65-5.71,16.35-16.44,19.61-25.97c3.29-9.6,6.4-18.66,17.9-23.2
			c11.49-4.55,19.96-0.05,28.92,4.71c7.45,3.94,15.69,8.31,25.88,7.01c-0.11,0.16-0.23,0.32-0.35,0.48
			C350.94,542.56,350.58,543.05,350.21,543.54z M188.03,459.72c0.04-0.13,0.08-0.26,0.13-0.39c-0.39,1.17-0.74,2.35-1.08,3.54
			c0,0,0-0.01,0-0.01C187.37,461.81,187.69,460.76,188.03,459.72z M189.32,455.97c0.06-0.17,0.13-0.34,0.19-0.51
			c0.35-0.94,0.72-1.87,1.1-2.79c0.07-0.16,0.13-0.33,0.2-0.49c0.41-0.98,0.84-1.94,1.29-2.9c0.11-0.25,0.23-0.5,0.35-0.74
			c0.44-0.94,0.9-1.87,1.37-2.79c0.11-0.21,0.23-0.42,0.34-0.64c0.41-0.78,0.83-1.56,1.27-2.33c0.13-0.23,0.26-0.47,0.4-0.71
			c0.16-0.28,0.34-0.56,0.5-0.84c1.58-0.18,3.27-0.18,5.07,0.01c11.35,1.23,16.32,9.07,21.58,17.37
			c5.49,8.64,11.71,18.43,25.75,19.96c14.05,1.52,22.21-6.71,29.43-13.97c6.92-6.97,13.45-13.57,24.8-12.34
			c11.35,1.23,16.32,9.07,21.59,17.37c5.48,8.64,11.69,18.43,25.74,19.96c7.61,0.82,13.49-1.22,18.43-4.41
			c0,0.09,0.01,0.18,0.01,0.27c0,0.11,0.01,0.22,0.01,0.33c-4.35,4.08-9.41,6.97-16.71,6.79c-11.34-0.28-16.91-7.67-22.81-15.49
			c-6.16-8.15-13.13-17.39-27.19-17.74c-14.06-0.35-21.48,8.54-28.03,16.39c-6.28,7.53-12.21,14.63-23.55,14.35
			s-16.91-7.67-22.81-15.49c-6.16-8.15-13.13-17.39-27.2-17.74c-4.79-0.11-8.8,0.84-12.28,2.46c0.03-0.09,0.06-0.18,0.09-0.28
			C188.59,458.01,188.94,456.99,189.32,455.97z M197.9,438.63c0.04-0.06,0.07-0.11,0.11-0.17c-0.5,0.79-0.99,1.58-1.46,2.39
			c0.26-0.43,0.51-0.87,0.77-1.3C197.51,439.25,197.71,438.94,197.9,438.63z M200.07,435.37c0.4-0.57,0.8-1.14,1.21-1.71
			c0.24-0.33,0.48-0.66,0.72-0.98c0.52-0.7,1.06-1.39,1.6-2.07c0.3-0.38,0.61-0.76,0.92-1.14c0.4-0.49,0.81-0.98,1.22-1.46
			c0.47-0.55,0.95-1.1,1.43-1.63c0.31-0.35,0.63-0.7,0.95-1.04c0.61-0.66,1.23-1.32,1.86-1.96c0.29-0.3,0.58-0.6,0.87-0.89
			c0.45-0.45,0.9-0.89,1.35-1.32c0.2-0.19,0.41-0.38,0.61-0.57c0.83-0.78,1.68-1.55,2.53-2.3c0.17-0.15,0.33-0.29,0.5-0.44
			c16.22-13.97,37.31-22.42,60.33-22.42c22.27,0,42.72,7.9,58.71,21.05c0.07,0.06,0.14,0.12,0.21,0.17
			c1.58,1.31,3.12,2.67,4.61,4.08c0.21,0.2,0.42,0.39,0.62,0.59c0.73,0.7,1.45,1.42,2.16,2.15c0.25,0.25,0.5,0.5,0.74,0.76
			c0.39,0.41,0.77,0.82,1.15,1.24c0.31,0.33,0.61,0.67,0.91,1.01c0.51,0.58,1.02,1.16,1.52,1.75c0.36,0.42,0.71,0.84,1.06,1.27
			c0.3,0.37,0.6,0.74,0.9,1.12c0.5,0.63,0.99,1.27,1.48,1.91c0.26,0.34,0.51,0.69,0.77,1.04c0.38,0.53,0.76,1.06,1.14,1.59
			c0.22,0.31,0.44,0.63,0.66,0.94c0.51,0.76,1.01,1.52,1.51,2.29c0.19,0.29,0.37,0.58,0.55,0.88c0.42,0.67,0.83,1.35,1.23,2.03
			c0.12,0.21,0.25,0.41,0.37,0.62c0.49,0.84,0.96,1.7,1.42,2.56c0.14,0.27,0.29,0.54,0.43,0.81c0.46,0.88,0.91,1.77,1.34,2.67
			c0.07,0.15,0.14,0.31,0.22,0.46c0.39,0.82,0.76,1.64,1.13,2.47c0.1,0.24,0.21,0.47,0.31,0.71c0.4,0.93,0.78,1.87,1.15,2.81
			c0.09,0.22,0.17,0.44,0.25,0.66c0.33,0.85,0.64,1.71,0.94,2.57c0.04,0.13,0.09,0.25,0.13,0.38c-4.8,1.51-9.96,1.82-16.01-0.35
			c-11.45-4.13-14.77-13.08-18.27-22.52c-3.61-9.78-7.72-20.86-21.65-25.89c-13.93-5.02-24.15,0.9-33.17,6.11
			c-8.74,5.05-16.99,9.82-28.44,5.7c-7.94-2.87-11.96-8.02-14.85-14.06c-1.65,0.92-3.27,1.88-4.85,2.9
			c3.31,6.76,8.24,13.03,17.77,16.47c13.93,5.02,24.16-0.9,33.18-6.11c8.74-5.05,16.99-9.82,28.44-5.69
			c9.67,3.49,13.54,10.39,16.61,18.14c-3.54-4.86-8.42-8.99-16.04-11.1c-13.97-3.87-23.56,2.88-32.02,8.82
			c-8.16,5.73-15.86,11.14-27.27,7.99c-11.42-3.15-15.24-11.75-19.3-20.87c-0.96-2.15-1.95-4.37-3.06-6.56
			c-1.59,1.06-3.14,2.18-4.65,3.33c0.89,1.8,1.71,3.65,2.56,5.54c4.2,9.44,8.97,20.14,22.95,24.01c13.97,3.87,23.56-2.87,32.02-8.82
			c8.16-5.73,15.87-11.14,27.28-7.99c10.69,2.96,14.73,10.7,18.53,19.16c-4.04-5.62-9.51-10.44-18.46-12.15
			c-14.02-2.69-22.92,4.81-30.77,11.44c-7.56,6.38-14.69,12.4-26.06,10.21c-11.37-2.19-15.77-10.43-20.41-19.15
			c-3.31-6.22-6.93-12.99-13.37-17.51c-1.44,1.29-2.84,2.62-4.2,4.01c5.94,3.67,9.2,9.78,12.59,16.16
			c4.82,9.06,10.3,19.34,24.32,22.04c14.02,2.69,22.92-4.82,30.77-11.44c7.55-6.38,14.69-12.4,26.06-10.21
			c11.37,2.19,15.76,10.43,20.41,19.15c0.36,0.66,0.7,1.34,1.07,2c-4.8-6.76-10.99-12.95-21.91-14.13
			c-14.04-1.53-22.21,6.7-29.42,13.96c-6.93,6.98-13.47,13.57-24.82,12.34c-11.35-1.23-16.32-9.07-21.58-17.37
			c-5.49-8.63-11.71-18.43-25.75-19.95c-0.68-0.08-1.36-0.13-2.01-0.15c-0.56,0.81-1.11,1.63-1.64,2.46
			c0.36-0.57,0.73-1.13,1.1-1.69C199.66,435.96,199.86,435.66,200.07,435.37z M367.3,471.57c0.01,0.03,0.01,0.06,0.02,0.09
			c-4.94,3.14-10.39,4.99-17.51,3.62c-7.64-1.47-12.13-5.67-15.65-10.93c3.22,3.31,7.39,6.03,13.1,7.61
			c7.79,2.15,14.22,1.02,19.84-1.45C367.16,470.86,367.23,471.21,367.3,471.57z M368.28,478.56c-4.72,3.73-10.05,6.2-17.39,5.41
			c-9.06-0.98-14.05-6.18-18.39-12.47c3.81,4.36,8.83,7.9,16.23,9.32c7.86,1.51,14.1-0.18,19.45-3.13
			C368.21,477.99,368.25,478.27,368.28,478.56z M365.83,464.88c-4.98,2.39-10.39,3.48-17.08,1.63c-6.74-1.86-10.84-5.63-13.89-10.28
			c2.81,2.74,6.35,5.09,10.99,6.76c7.46,2.69,13.87,2.24,19.58,0.43C365.57,463.9,365.71,464.39,365.83,464.88z M368.58,493.63
			c-3.86,4.06-8.53,7.04-15.42,7.45c-11.34,0.67-17.53-6.23-24.08-13.54c-6.83-7.61-14.56-16.23-28.61-15.39
			c-14.06,0.84-20.72,10.31-26.6,18.68c-5.64,8.02-10.96,15.61-22.29,16.29c-11.35,0.67-17.53-6.23-24.08-13.52
			c-6.83-7.61-14.56-16.23-28.62-15.4c-6.37,0.39-11.23,2.54-15.17,5.57c0.02-0.52,0.05-1.04,0.09-1.56
			c0.03-0.54,0.07-1.09,0.11-1.63c0.05-0.61,0.1-1.21,0.16-1.82c0.09-0.93,0.2-1.85,0.32-2.77c0.06-0.43,0.12-0.87,0.18-1.3
			c0.16-1.07,0.32-2.13,0.51-3.19c0.04-0.2,0.08-0.4,0.12-0.6c0.22-1.17,0.46-2.34,0.72-3.5c0.01-0.05,0.02-0.09,0.03-0.14
			c3.83-2.99,8.34-4.92,14.36-4.77c11.34,0.28,16.92,7.67,22.82,15.49c6.16,8.15,13.12,17.39,27.19,17.74
			c14.06,0.35,21.48-8.55,28.03-16.39c6.27-7.53,12.21-14.64,23.55-14.35c11.33,0.28,16.91,7.67,22.81,15.49
			c6.16,8.15,13.13,17.39,27.19,17.74c6.98,0.17,12.31-1.94,16.73-5.07C368.6,493.31,368.59,493.47,368.58,493.63z M367.61,502.55
			c-3.3,3.49-7.41,6.09-13.33,6.94c-11.36,1.63-18.15-4.73-25.34-11.46c-7.48-7-15.96-14.94-30.01-12.93
			c-14.04,2.01-19.95,12.02-25.15,20.84c-5.02,8.48-9.75,16.49-21.11,18.12c-11.35,1.63-18.14-4.73-25.33-11.45
			c-7.48-7.01-15.96-14.95-30.01-12.94c-5.01,0.71-8.99,2.46-12.26,4.8c0,0,0-0.01,0-0.01c-0.17-0.96-0.33-1.94-0.47-2.91
			c-0.04-0.25-0.07-0.51-0.11-0.77c-0.1-0.74-0.2-1.48-0.28-2.22c-0.03-0.28-0.07-0.56-0.1-0.84c-0.1-0.91-0.18-1.83-0.25-2.76
			c-0.02-0.33-0.04-0.67-0.06-1c-0.04-0.63-0.08-1.27-0.1-1.9c-0.01-0.22-0.02-0.45-0.03-0.68c3.88-4.13,8.58-7.15,15.54-7.56
			c11.35-0.68,17.53,6.23,24.08,13.52c6.83,7.61,14.56,16.23,28.62,15.39c14.05-0.83,20.71-10.31,26.59-18.67
			c5.64-8.03,10.96-15.62,22.31-16.29c11.34-0.68,17.52,6.22,24.08,13.52c6.81,7.61,14.55,16.23,28.61,15.39
			c5.88-0.35,10.46-2.21,14.23-4.88C367.69,502.08,367.65,502.31,367.61,502.55z M365.36,512.87c-2.61,2.27-5.82,4.01-10.01,4.96
			c-11.38,2.59-18.77-3.18-26.58-9.29c-8.11-6.35-17.31-13.55-31.32-10.36c-14.01,3.19-19.19,13.65-23.76,22.87
			c-4.41,8.9-8.56,17.29-19.96,19.88c-11.39,2.59-18.77-3.18-26.58-9.29c-8.11-6.35-17.31-13.55-31.32-10.36
			c-1.95,0.44-3.74,1.03-5.36,1.74c-0.11-0.28-0.23-0.56-0.34-0.84c-0.11-0.27-0.21-0.55-0.32-0.82c-0.74-1.91-1.43-3.85-2.04-5.83
			c-0.01-0.02-0.01-0.05-0.02-0.07c-0.5-1.6-0.95-3.21-1.36-4.84c3.02-2.67,6.74-4.64,11.74-5.36c11.36-1.63,18.15,4.73,25.34,11.46
			c7.48,7,15.95,14.94,29.99,12.93c14.04-2.01,19.95-12.02,25.16-20.84c5.01-8.48,9.74-16.49,21.1-18.12
			c11.36-1.63,18.15,4.73,25.34,11.46c7.48,7,15.95,14.94,29.99,12.93c4.25-0.61,7.75-1.96,10.71-3.78
			C365.65,511.83,365.51,512.35,365.36,512.87z M361.53,523.87c-1.52,0.88-3.22,1.62-5.16,2.23c-11.44,3.56-19.37-1.59-27.78-7.04
			c-8.7-5.64-18.57-12.04-32.53-7.69c-13.97,4.34-18.46,15.2-22.42,24.79c-3.83,9.27-7.45,18.01-18.89,21.57
			c-11.44,3.56-19.38-1.59-27.78-7.04c-7.31-4.75-15.46-10.01-26.17-8.99c-0.02-0.03-0.04-0.06-0.07-0.09
			c-0.61-0.86-1.21-1.74-1.79-2.62c-0.2-0.31-0.41-0.62-0.61-0.93c-0.47-0.73-0.93-1.47-1.39-2.22c-0.34-0.57-0.68-1.14-1.02-1.72
			c-0.05-0.09-0.1-0.17-0.15-0.26c-1.06-1.85-2.06-3.75-3-5.68c1.31-0.56,2.74-1.03,4.32-1.39c11.38-2.59,18.77,3.19,26.58,9.3
			c8.11,6.34,17.31,13.54,31.32,10.36c14.01-3.19,19.19-13.65,23.76-22.88c4.41-8.89,8.56-17.29,19.96-19.88s18.77,3.19,26.58,9.3
			c8.11,6.34,17.31,13.54,31.32,10.36c2.19-0.5,4.16-1.18,5.95-2.01C362.22,522.19,361.88,523.03,361.53,523.87z M357.33,532.53
			c-0.33,0.59-0.66,1.18-1,1.77c-0.09,0.15-0.18,0.3-0.27,0.45c-10.85,3.74-19.02-0.58-27.66-5.16
			c-9.25-4.91-19.73-10.47-33.64-4.97c-8.37,3.3-13.1,8.68-16.27,14.59c0.11-0.3,0.24-0.6,0.37-0.9
			c3.82-9.27,7.45-18.01,18.88-21.57c11.44-3.56,19.38,1.59,27.78,7.04c8.66,5.61,18.49,11.97,32.35,7.74
			C357.69,531.86,357.51,532.2,357.33,532.53z M248.18,576.25c-17-5.41-31.88-15.6-43.07-28.99c7,0.51,12.77,4.25,18.79,8.15
			c8.7,5.64,18.57,12.04,32.54,7.69c10.28-3.2,15.43-9.92,19-17.08c-0.66,1.75-1.25,3.5-1.84,5.21c-3.29,9.6-6.4,18.67-17.9,23.22
			C253.04,575.5,250.55,576.05,248.18,576.25z"/>
		<path class="st7" d="M444.86,441.76c-0.82-0.32-1.77-0.62-2.85-0.92c-1.08-0.3-2.29-0.55-3.64-0.76
			c-1.35-0.21-2.81-0.32-4.37-0.32c-2.83,0-5.43,0.44-7.79,1.33c-2.37,0.89-4.39,2.19-6.08,3.89c-1.69,1.71-3.01,3.82-3.96,6.33
			s-1.43,5.39-1.43,8.65v10.64c-2.15,0-4.14-0.02-5.95-0.06c-1.82-0.04-3.38-0.1-4.69-0.19v5.57l10.64-0.38v35.15
			c0,3.59-0.04,6.73-0.13,9.41c-0.08,2.68-0.21,4.99-0.38,6.94c-0.17,1.94-0.36,3.57-0.57,4.88c-0.21,1.31-0.44,2.41-0.7,3.29v0.25
			h14.63v-0.25c-0.25-0.89-0.5-1.98-0.73-3.29c-0.23-1.31-0.42-2.93-0.57-4.88c-0.15-1.94-0.28-4.25-0.38-6.94
			c-0.11-2.68-0.16-5.82-0.16-9.41v-35.15c2.36,0.04,4.56,0.08,6.59,0.13c2.03,0.04,3.78,0.11,5.26,0.19
			c1.73,0.08,3.34,0.15,4.81,0.19l1.14-6.46c-0.47,0.08-1.22,0.18-2.28,0.28c-1.06,0.11-2.37,0.2-3.93,0.28
			c-1.56,0.09-3.32,0.17-5.29,0.25c-1.96,0.08-4.06,0.15-6.3,0.19v-12.03c0-2.83,0.34-5.14,1.01-6.94c0.68-1.79,1.52-3.2,2.53-4.21
			c1.01-1.01,2.12-1.71,3.32-2.09c1.2-0.38,2.33-0.57,3.39-0.57c1.6,0,3.03,0.28,4.27,0.85c1.25,0.57,2.38,1.3,3.39,2.19
			c1.01,0.89,1.92,1.87,2.72,2.94c0.8,1.08,1.54,2.12,2.22,3.14l0.76-0.38l-2.47-10.89C446.37,442.36,445.68,442.08,444.86,441.76z"
			/>
		<path class="st7" d="M491.76,469.95c-0.68-0.19-1.44-0.34-2.28-0.44c-0.85-0.11-1.84-0.16-2.98-0.16c-1.86,0-3.71,0.3-5.54,0.89
			c-1.84,0.59-3.64,1.37-5.42,2.34c-1.77,0.97-3.5,2.09-5.19,3.36c-1.69,1.27-3.32,2.55-4.88,3.86c0.13-2.2,0.31-3.99,0.54-5.38
			c0.23-1.39,0.52-2.57,0.86-3.55v-0.25h-14.63v0.25c0.25,0.89,0.5,1.99,0.73,3.29c0.23,1.31,0.42,2.94,0.57,4.88
			c0.15,1.94,0.27,4.26,0.38,6.94c0.1,2.68,0.16,5.82,0.16,9.41v15.33c0,3.59-0.05,6.73-0.16,9.41c-0.11,2.68-0.23,4.99-0.38,6.94
			c-0.15,1.94-0.34,3.57-0.57,4.88c-0.23,1.31-0.47,2.41-0.73,3.29v0.25h14.63v-0.25c-0.25-0.89-0.49-1.98-0.7-3.29
			c-0.21-1.31-0.4-2.93-0.57-4.88c-0.17-1.94-0.3-4.25-0.38-6.94c-0.08-2.68-0.13-5.82-0.13-9.41v-16.34c0-1.6,0-3.12,0-4.56
			c0-1.44,0.04-2.77,0.13-3.99c1.39-1.18,2.83-2.31,4.31-3.39c1.48-1.08,2.95-2.03,4.43-2.85c1.48-0.82,2.93-1.47,4.37-1.93
			c1.44-0.46,2.81-0.7,4.12-0.7c2.41,0,4.31,0.56,5.7,1.68c1.39,1.12,2.34,2.61,2.85,4.47l1.08,0.25l3.1-12.1
			c-0.51-0.21-1.03-0.43-1.58-0.67C493.05,470.35,492.44,470.14,491.76,469.95z"/>
		<path class="st7" d="M553.26,525.18c-1.39,1.37-2.98,2.57-4.75,3.58c-1.77,1.01-3.75,1.8-5.92,2.38
			c-2.18,0.57-4.49,0.85-6.94,0.85c-3.55,0-6.73-0.68-9.53-2.03c-2.81-1.35-5.19-3.28-7.16-5.79c-1.96-2.51-3.51-5.54-4.62-9.09
			c-1.12-3.55-1.8-7.51-2.06-11.91c2.79-0.08,5.92-0.15,9.41-0.19c3.48-0.04,7.06-0.06,10.73-0.06c5.15,0,10.11,0.02,14.88,0.06
			c4.77,0.04,9.54,0.11,14.31,0.19c-0.13-5.36-0.98-10.14-2.57-14.35c-1.58-4.2-3.74-7.73-6.46-10.58
			c-2.72-2.85-5.94-5.02-9.66-6.52s-7.75-2.25-12.1-2.25c-4.39,0-8.48,0.85-12.26,2.53c-3.78,1.69-7.08,4.03-9.91,7.03
			c-2.83,3-5.05,6.53-6.65,10.61c-1.61,4.07-2.41,8.5-2.41,13.27c0,5.41,0.88,10.21,2.63,14.41c1.75,4.2,4.15,7.73,7.19,10.58
			c3.04,2.85,6.61,5.01,10.7,6.49c4.1,1.48,8.49,2.22,13.17,2.22c4.43,0,8.23-0.41,11.4-1.24c3.17-0.82,5.89-1.83,8.17-3.01
			l4.69-11.27l-0.76-0.38C555.84,522.32,554.66,523.81,553.26,525.18z M513.93,487.81c0.93-2.93,2.15-5.41,3.67-7.44
			c1.52-2.03,3.3-3.58,5.35-4.66c2.05-1.08,4.3-1.62,6.74-1.62c2.7,0,5.17,0.55,7.41,1.65c2.24,1.1,4.18,2.66,5.83,4.69
			c1.65,2.03,3,4.5,4.05,7.41c1.05,2.91,1.77,6.21,2.15,9.88c-3.46,0.13-7.32,0.2-11.56,0.22c-4.24,0.02-8.48,0.03-12.7,0.03
			c-2.28,0-4.48,0-6.59,0c-2.11,0-4.12-0.04-6.02-0.13C512.45,494.09,513,490.75,513.93,487.81z"/>
		<path class="st7" d="M620.34,551.63c-0.09,2.68-0.21,4.99-0.38,6.94c-0.17,1.94-0.36,3.57-0.57,4.88
			c-0.21,1.31-0.44,2.41-0.7,3.29v0.25h14.63v-0.25c-0.25-0.89-0.5-1.99-0.73-3.29c-0.23-1.31-0.42-2.94-0.57-4.88
			c-0.15-1.94-0.27-4.25-0.38-6.94c-0.11-2.68-0.16-5.82-0.16-9.41v-50.58c0-1.01,0.02-2.35,0.06-4.02c0.04-1.67,0.1-3.37,0.19-5.1
			c0.08-1.73,0.18-3.35,0.28-4.85c0.1-1.5,0.24-2.56,0.41-3.2c-1.86-0.72-3.84-1.34-5.95-1.87c-2.11-0.53-4.16-1.02-6.14-1.49
			c-2.07-0.51-4.36-0.91-6.87-1.2c-2.51-0.3-4.89-0.44-7.13-0.44c-5.19,0-10.01,0.85-14.44,2.53c-4.43,1.69-8.29,4.03-11.56,7.03
			c-3.27,3-5.83,6.53-7.66,10.61c-1.84,4.07-2.75,8.5-2.75,13.27c0,5.36,0.89,10.13,2.66,14.31c1.77,4.18,4.23,7.71,7.38,10.58
			c3.15,2.87,6.88,5.06,11.21,6.56c4.33,1.5,9.05,2.25,14.16,2.25c1.14,0,2.36-0.05,3.67-0.16c1.31-0.11,2.63-0.25,3.96-0.44
			c1.33-0.19,2.63-0.43,3.89-0.73c1.27-0.3,2.47-0.61,3.61-0.95v7.89C620.46,545.81,620.42,548.94,620.34,551.63z M614.29,531.01
			c-2.22,0.65-4.46,0.98-6.74,0.98c-4.18,0-7.82-0.81-10.93-2.44c-3.1-1.62-5.68-3.88-7.73-6.78c-2.05-2.89-3.59-6.3-4.62-10.23
			c-1.03-3.93-1.55-8.17-1.55-12.73c0-4.05,0.54-7.67,1.62-10.86c1.08-3.19,2.59-5.88,4.53-8.08s4.26-3.87,6.97-5.04
			c2.7-1.16,5.7-1.74,8.99-1.74c2.79,0,5.49,0.4,8.11,1.2c2.62,0.8,5,1.88,7.16,3.23c0.13,1.44,0.22,3.27,0.28,5.51
			c0.06,2.24,0.1,5.11,0.1,8.61v35.53C618.56,529.41,616.5,530.35,614.29,531.01z"/>
		<path class="st7" d="M692.35,535.22v0.25h14.63v-0.25c-0.25-0.89-0.49-1.98-0.7-3.29c-0.21-1.31-0.4-2.93-0.57-4.88
			c-0.17-1.94-0.3-4.25-0.38-6.94c-0.08-2.68-0.13-5.82-0.13-9.41v-15.33c0-3.59,0.04-6.72,0.13-9.41c0.08-2.68,0.21-4.99,0.38-6.94
			c0.17-1.94,0.36-3.57,0.57-4.88c0.21-1.31,0.44-2.41,0.7-3.29v-0.25h-14.63v0.25c0.25,0.89,0.5,1.99,0.73,3.29
			c0.23,1.31,0.42,2.94,0.57,4.88c0.15,1.94,0.27,4.26,0.38,6.94c0.1,2.68,0.16,5.82,0.16,9.41v15.33c0,1.56,0,3.03,0,4.4
			c0,1.37-0.04,2.67-0.13,3.9c-1.52,1.44-3.18,2.79-4.97,4.05c-1.8,1.27-3.59,2.38-5.38,3.33c-1.79,0.95-3.54,1.71-5.23,2.28
			c-1.69,0.57-3.21,0.86-4.56,0.86c-3.76,0-6.74-1.31-8.96-3.93c-2.22-2.62-3.32-6.71-3.32-12.29v-17.92c0-3.59,0.04-6.72,0.13-9.41
			c0.08-2.68,0.21-4.99,0.38-6.94c0.17-1.94,0.36-3.57,0.57-4.88c0.21-1.31,0.44-2.41,0.7-3.29v-0.25h-14.63v0.25
			c0.25,0.89,0.49,1.99,0.7,3.29c0.21,1.31,0.4,2.94,0.57,4.88c0.17,1.94,0.3,4.26,0.38,6.94c0.08,2.68,0.13,5.82,0.13,9.41v21.53
			c0,2.49,0.33,4.92,0.98,7.28c0.65,2.37,1.71,4.48,3.17,6.33c1.46,1.86,3.34,3.36,5.64,4.5c2.3,1.14,5.1,1.71,8.39,1.71
			c2.15,0,4.34-0.35,6.56-1.05c2.22-0.7,4.41-1.62,6.59-2.75c2.17-1.14,4.26-2.43,6.27-3.86c2-1.43,3.87-2.89,5.61-4.37
			c-0.13,2.66-0.33,4.81-0.6,6.46C692.87,532.81,692.6,534.16,692.35,535.22z"/>
		<path class="st7" d="M776.52,520.71c-0.97,1.61-2.15,3.09-3.55,4.47s-2.98,2.57-4.75,3.58c-1.77,1.01-3.75,1.8-5.92,2.38
			c-2.18,0.57-4.49,0.85-6.94,0.85c-3.55,0-6.73-0.68-9.53-2.03c-2.81-1.35-5.19-3.28-7.16-5.79c-1.96-2.51-3.51-5.54-4.62-9.09
			c-1.12-3.55-1.8-7.51-2.06-11.91c2.79-0.08,5.92-0.15,9.41-0.19c3.48-0.04,7.06-0.06,10.73-0.06c5.15,0,10.11,0.02,14.88,0.06
			c4.77,0.04,9.54,0.11,14.31,0.19c-0.13-5.36-0.98-10.14-2.57-14.35c-1.58-4.2-3.74-7.73-6.46-10.58
			c-2.72-2.85-5.94-5.02-9.66-6.52s-7.75-2.25-12.1-2.25c-4.39,0-8.48,0.85-12.26,2.53c-3.78,1.69-7.08,4.03-9.91,7.03
			c-2.83,3-5.05,6.53-6.65,10.61c-1.61,4.07-2.41,8.5-2.41,13.27c0,5.41,0.88,10.21,2.63,14.41c1.75,4.2,4.15,7.73,7.19,10.58
			c3.04,2.85,6.61,5.01,10.7,6.49c4.1,1.48,8.49,2.22,13.17,2.22c4.43,0,8.23-0.41,11.4-1.24c3.17-0.82,5.89-1.83,8.17-3.01
			l4.69-11.27L776.52,520.71z M733.65,487.81c0.93-2.93,2.15-5.41,3.67-7.44c1.52-2.03,3.3-3.58,5.35-4.66
			c2.05-1.08,4.3-1.62,6.74-1.62c2.7,0,5.17,0.55,7.41,1.65c2.24,1.1,4.18,2.66,5.83,4.69c1.65,2.03,3,4.5,4.05,7.41
			c1.05,2.91,1.77,6.21,2.15,9.88c-3.46,0.13-7.32,0.2-11.56,0.22c-4.24,0.02-8.48,0.03-12.7,0.03c-2.28,0-4.48,0-6.59,0
			c-2.11,0-4.12-0.04-6.02-0.13C732.17,494.09,732.72,490.75,733.65,487.81z"/>
		<path class="st7" d="M850.06,527.05c-0.17-1.94-0.3-4.25-0.38-6.94c-0.08-2.68-0.13-5.82-0.13-9.41v-21.53
			c0-2.45-0.33-4.87-0.98-7.25c-0.65-2.38-1.71-4.51-3.17-6.36c-1.46-1.86-3.34-3.36-5.64-4.5c-2.3-1.14-5.1-1.71-8.39-1.71
			c-2.15,0-4.35,0.35-6.59,1.05c-2.24,0.7-4.43,1.6-6.59,2.72c-2.15,1.12-4.23,2.4-6.24,3.83c-2.01,1.44-3.87,2.87-5.61,4.31
			c0.21-2.62,0.41-4.74,0.6-6.37c0.19-1.62,0.45-2.97,0.79-4.02v-0.25h-14.63v0.25c0.25,0.89,0.5,1.99,0.73,3.29
			c0.23,1.31,0.42,2.94,0.57,4.88c0.15,1.94,0.27,4.26,0.38,6.94c0.11,2.68,0.16,5.82,0.16,9.41v15.33c0,3.59-0.05,6.73-0.16,9.41
			c-0.11,2.68-0.23,4.99-0.38,6.94c-0.15,1.94-0.34,3.57-0.57,4.88c-0.23,1.31-0.48,2.41-0.73,3.29v0.25h14.63v-0.25
			c-0.25-0.89-0.49-1.98-0.7-3.29c-0.21-1.31-0.4-2.93-0.57-4.88c-0.17-1.94-0.3-4.25-0.38-6.94c-0.08-2.68-0.13-5.82-0.13-9.41
			v-15.33l0.13-8.3c1.56-1.44,3.23-2.79,5-4.05c1.77-1.27,3.55-2.38,5.32-3.33c1.77-0.95,3.5-1.71,5.19-2.28
			c1.69-0.57,3.21-0.85,4.56-0.85c3.76,0,6.76,1.31,8.99,3.93c2.24,2.62,3.36,6.71,3.36,12.29v17.92c0,3.59-0.05,6.73-0.16,9.41
			c-0.11,2.68-0.23,4.99-0.38,6.94c-0.15,1.94-0.34,3.57-0.57,4.88c-0.23,1.31-0.47,2.41-0.73,3.29v0.25h14.63v-0.25
			c-0.25-0.89-0.49-1.98-0.7-3.29C850.42,530.61,850.23,528.99,850.06,527.05z"/>
		<path class="st7" d="M898.29,512.32c-1.29-2.3-2.9-4.47-4.85-6.49c-1.94-2.03-4.04-3.97-6.3-5.83c-2.26-1.86-4.36-3.71-6.3-5.54
			c-1.94-1.84-3.56-3.69-4.84-5.57c-1.29-1.88-1.93-3.85-1.93-5.92c0-1.48,0.25-2.77,0.76-3.86c0.51-1.1,1.19-2.02,2.06-2.75
			c0.87-0.74,1.88-1.3,3.04-1.68c1.16-0.38,2.4-0.57,3.71-0.57c1.9,0,3.58,0.31,5.04,0.92c1.46,0.61,2.7,1.38,3.74,2.31
			c1.03,0.93,1.88,1.94,2.53,3.04c0.65,1.1,1.13,2.13,1.43,3.1l0.89-0.13l-0.63-10.51c-1.22-0.67-3.01-1.38-5.35-2.12
			c-2.34-0.74-5.27-1.11-8.77-1.11c-2.66,0-5.11,0.4-7.35,1.2c-2.24,0.8-4.17,1.93-5.79,3.39c-1.63,1.46-2.89,3.21-3.8,5.26
			c-0.91,2.05-1.36,4.3-1.36,6.75c0,3,0.62,5.67,1.87,8.01c1.24,2.34,2.82,4.5,4.72,6.46c1.9,1.96,3.94,3.81,6.11,5.54
			c2.17,1.73,4.21,3.46,6.11,5.19c1.9,1.73,3.47,3.54,4.72,5.42c1.25,1.88,1.87,3.94,1.87,6.18c0,2.79-0.92,5.05-2.76,6.78
			c-1.84,1.73-4.32,2.6-7.44,2.6c-1.9,0-3.65-0.33-5.26-0.98c-1.6-0.65-3.03-1.56-4.27-2.72c-1.25-1.16-2.29-2.56-3.14-4.21
			c-0.85-1.65-1.48-3.46-1.9-5.45h-1.01l-0.63,12.03c0.89,0.63,1.91,1.3,3.07,1.99c1.16,0.7,2.47,1.33,3.93,1.9
			c1.46,0.57,3.06,1.05,4.81,1.43c1.75,0.38,3.64,0.57,5.67,0.57c3.42,0,6.36-0.5,8.83-1.49c2.47-0.99,4.5-2.29,6.08-3.89
			c1.58-1.6,2.76-3.43,3.52-5.48c0.76-2.05,1.14-4.15,1.14-6.3C900.22,517.1,899.58,514.62,898.29,512.32z"/>
		<polygon class="st7" points="523.24,603.21 507.77,583.12 503.85,583.12 503.85,611.9 508.71,611.9 508.71,591.71 524.22,611.9 
			528.1,611.9 528.1,583.12 523.24,583.12 		"/>
		<polygon class="st7" points="535.61,611.9 554.75,611.9 554.75,607.73 540.63,607.73 540.63,599.36 553.85,599.36 553.85,595.2 
			540.63,595.2 540.63,587.28 554.75,587.28 554.75,583.12 535.61,583.12 		"/>
		<path class="st7" d="M580.06,600.06c0,2.59-0.59,4.52-1.76,5.82c-1.17,1.29-2.88,1.94-5.14,1.94c-2.26,0-3.98-0.65-5.16-1.94
			c-1.18-1.29-1.78-3.23-1.78-5.82v-16.94h-5.22v16.98c0,4.03,1.04,7.07,3.12,9.12c2.08,2.06,5.1,3.08,9.04,3.08
			c3.97,0,6.98-1.03,9.02-3.08c2.04-2.05,3.06-5.1,3.06-9.12v-16.98h-5.18V600.06z"/>
		<path class="st7" d="M609.67,600.47c-0.38-0.25-0.79-0.43-1.23-0.57c0.7-0.16,1.35-0.38,1.94-0.66c1.47-0.68,2.59-1.66,3.37-2.94
			c0.78-1.28,1.16-2.8,1.16-4.57c0-2.72-0.86-4.84-2.57-6.35c-1.71-1.51-4.15-2.27-7.31-2.27h-12.49v28.78h5.22v-11.51h3.88
			c0.68,0,1.28,0.07,1.8,0.2c0.52,0.14,0.98,0.37,1.39,0.71c0.41,0.34,0.78,0.81,1.1,1.41l4.98,9.18h5.76l-4.82-8.86
			C611.23,601.87,610.5,601.01,609.67,600.47z M604.14,596.51h-6.37v-9.27h6.37c1.88,0,3.3,0.39,4.27,1.16
			c0.97,0.78,1.45,1.93,1.45,3.45c0,1.55-0.48,2.71-1.45,3.49C607.44,596.12,606.02,596.51,604.14,596.51z"/>
		<path class="st7" d="M644.53,586.71c-1.21-1.28-2.67-2.27-4.37-2.96c-1.7-0.69-3.6-1.04-5.69-1.04c-2.1,0-3.99,0.35-5.69,1.04
			c-1.7,0.69-3.16,1.69-4.37,2.98c-1.21,1.29-2.14,2.84-2.8,4.65c-0.65,1.81-0.98,3.84-0.98,6.1c0,2.23,0.33,4.26,0.98,6.08
			c0.65,1.82,1.58,3.39,2.8,4.69c1.21,1.31,2.67,2.31,4.37,3c1.7,0.69,3.6,1.04,5.69,1.04c2.1,0,3.99-0.35,5.69-1.04
			c1.7-0.69,3.16-1.69,4.37-3c1.21-1.31,2.14-2.87,2.8-4.69c0.65-1.82,0.98-3.86,0.98-6.12c0-2.26-0.33-4.29-0.98-6.1
			C646.67,589.53,645.74,587.99,644.53,586.71z M641.84,603.04c-0.67,1.55-1.62,2.73-2.86,3.55c-1.24,0.82-2.74,1.22-4.51,1.22
			c-1.74,0-3.24-0.41-4.49-1.22c-1.25-0.82-2.21-2-2.88-3.55c-0.67-1.55-1-3.4-1-5.55c0-2.18,0.33-4.03,1-5.57
			c0.67-1.54,1.63-2.71,2.88-3.51c1.25-0.8,2.75-1.2,4.49-1.2c1.77,0,3.28,0.4,4.53,1.2c1.25,0.8,2.2,1.97,2.86,3.51
			c0.65,1.54,0.98,3.39,0.98,5.57C642.84,599.64,642.5,601.49,641.84,603.04z"/>
		<path class="st7" d="M680.63,587.36c1.47,0,2.84,0.24,4.12,0.71c1.28,0.48,2.53,1.23,3.76,2.27l1.71-4.16
			c-1.12-1.12-2.54-1.97-4.27-2.57c-1.73-0.6-3.56-0.9-5.49-0.9c-2.99,0-5.56,0.61-7.69,1.82c-2.14,1.21-3.78,2.92-4.92,5.12
			c-1.14,2.2-1.71,4.82-1.71,7.84c0,3.02,0.57,5.64,1.71,7.86c1.14,2.22,2.78,3.93,4.92,5.14c2.14,1.21,4.7,1.82,7.69,1.82
			c1.93,0,3.76-0.31,5.49-0.92c1.73-0.61,3.15-1.46,4.27-2.55l-1.71-4.16c-1.23,1.03-2.48,1.79-3.76,2.27s-2.65,0.71-4.12,0.71
			c-2.91,0-5.13-0.88-6.65-2.65c-1.52-1.77-2.29-4.27-2.29-7.51c0-3.24,0.76-5.73,2.29-7.49
			C675.5,588.24,677.72,587.36,680.63,587.36z"/>
		<polygon class="st7" points="701.25,583.12 696.02,583.12 696.02,611.9 715.04,611.9 715.04,607.45 701.25,607.45 		"/>
		<rect x="720.19" y="583.12" class="st7" width="5.22" height="28.78"/>
		<polygon class="st7" points="752.27,603.21 736.8,583.12 732.88,583.12 732.88,611.9 737.74,611.9 737.74,591.71 753.25,611.9 
			757.13,611.9 757.13,583.12 752.27,583.12 		"/>
		<rect x="764.64" y="583.12" class="st7" width="5.23" height="28.78"/>
		<path class="st7" d="M790.89,587.36c1.47,0,2.84,0.24,4.12,0.71c1.28,0.48,2.53,1.23,3.76,2.27l1.71-4.16
			c-1.12-1.12-2.54-1.97-4.27-2.57c-1.73-0.6-3.56-0.9-5.49-0.9c-2.99,0-5.56,0.61-7.69,1.82c-2.14,1.21-3.78,2.92-4.92,5.12
			c-1.14,2.2-1.71,4.82-1.71,7.84c0,3.02,0.57,5.64,1.71,7.86c1.14,2.22,2.78,3.93,4.92,5.14c2.14,1.21,4.7,1.82,7.69,1.82
			c1.93,0,3.76-0.31,5.49-0.92c1.73-0.61,3.15-1.46,4.27-2.55l-1.71-4.16c-1.23,1.03-2.48,1.79-3.76,2.27
			c-1.28,0.48-2.65,0.71-4.12,0.71c-2.91,0-5.13-0.88-6.65-2.65c-1.52-1.77-2.29-4.27-2.29-7.51c0-3.24,0.76-5.73,2.29-7.49
			C785.76,588.24,787.97,587.36,790.89,587.36z"/>
	</g>
</g>
</svg>
